<?xml version="1.0" encoding="UTF-8"?>
<svg id="Layer_1" xmlns="http://www.w3.org/2000/svg" version="1.1" viewBox="0 0 200 200">
  <!-- Generator: Adobe Illustrator 29.8.1, SVG Export Plug-In . SVG Version: 2.1.1 Build 2)  -->
  <defs>
    <style>
      .st0 {
        fill: #f4f9ff;
      }

      .st1 {
        fill: #3b5aa9;
      }
    </style>
  </defs>
  <path class="st1" d="M71.5-166.2h-.7c-5.3,0-10.5,2.6-13.1,7.1h0l-13.1,23h-3.1v-4.9s0-2.6-1.6-2.4c-.3,0-.7,0-.9,0-2.5.6-6.9,1.9-6.9,1.9-1,.5-1.9,1.5-1.8,2.6v3.5s0,1,2.3,1.3h10.3c0,0-8.7,9.1-8.7,9.1,0,0-3.4,2.7-2.3,14,.9,11.2,2.2,38.7,2.2,38.7,0,0,0,4.6,2.9,4.8h3.5c0,0,.7,0,.7,0h0c0,0,19.1,0,19.1,0,0,0,0,0,.3,0,1,0,2-.7,2.6-1.3.9-.9.7-6.3.7-6.3,0,0,0-.7,2.2-.7h73.4c2.2,0,2.2.7,2.2.7,0,0-.3,5.3.7,6.3s1.6,1,2.6,1.3c0,0,.3,0,.3,0h19.6c0,0,.7,0,.7,0h0c0,0,3.1,0,3.1,0,3.1,0,2.9-4.8,2.9-4.8,0,0,1.2-27.6,2.2-38.7.9-11.2-2.2-14-2.2-14,0,0-8.7-9.1-8.7-9.3h10.2c2.6,0,2.3-1.3,2.3-1.3v-3.5c0-1-.7-2.2-1.8-2.6,0,0-4.4-1-6.8-1.9-.3,0-.6,0-.7,0-1.9,0-1.6,2.4-1.6,2.4v4.9h-3.4l-13.2-23h0c-2.6-4.5-7.9-7.2-13.2-7.1h-.7c-8.4.3-17.4.5-26.5.5h-9.7c-9,.2-18,0-26.5-.3h.2ZM84.3-88.7c-1.8,0-3.1-1.3-3.1-2.8h0c0-1.6,1.5-3.1,3.1-3.1h37.4c1.8,0,3.1,1.3,3.1,3.1h0c0,1.6-1.5,3.1-3.1,3.1h0l-37.3-.2h0ZM78.7-101.7c-2,0-2.7-1.9-3.7-3.7l-5-9.4c-1-1.8,1.8-3.7,3.7-3.7h58.6c2,0,4.6,1.9,3.7,3.7l-5,9.4c-.9,1.8-1.8,3.7-3.7,3.7h-48.5ZM139.5-108.9c.6-2.3,1.2-5.5,2.7-6.4,2.2-2.3,10.1-4.8,15.8-4.8h.7c4.2,0,12.7,4.4,7.9,8.7-1.5,1.3-3.4,2.2-5.3,2.6h-21.8ZM103.3-75.6h0M45.8-106.1c-1.9-.4-3.8-1.3-5.3-2.6-4.8-4.3,3.7-8.6,7.9-8.7h.7c5.7,0,13.5,2.5,15.8,4.8,1.6.9,2.1,4.1,2.7,6.4h-21.8Z"/>
  <g>
    <circle class="st0" cx="100" cy="100" r="94.2"/>
    <path class="st1" d="M69.9,52.5h-.7c-5.1,0-10.1,2.5-12.6,6.9h0l-12.6,22.2h-3v-4.8s0-2.5-1.5-2.3c-.3,0-.7,0-.8,0-2.4.6-6.7,1.8-6.7,1.8-1,.5-1.8,1.4-1.7,2.5v3.3s0,1,2.2,1.3h9.9c0,0-8.4,8.8-8.4,8.8,0,0-3.3,2.6-2.2,13.5.8,10.8,2.1,37.3,2.1,37.3,0,0,0,4.5,2.8,4.6h3.3c0,0,.7,0,.7,0h0c0,0,18.4,0,18.4,0,0,0,0,0,.3,0,1,0,1.9-.7,2.5-1.3.8-.9.7-6.1.7-6.1,0,0,0-.7,2.1-.7h70.7c2.1,0,2.1.7,2.1.7,0,0-.3,5.1.7,6.1s1.5,1,2.5,1.3c0,0,.3,0,.3,0h18.8c0,0,.7,0,.7,0h0c0,0,3,0,3,0,3,0,2.8-4.6,2.8-4.6,0,0,1.1-26.6,2.1-37.3.8-10.8-2.1-13.5-2.1-13.5,0,0-8.4-8.8-8.4-9h9.8c2.5,0,2.2-1.3,2.2-1.3v-3.3c0-1-.7-2.1-1.7-2.5,0,0-4.2-1-6.6-1.8-.3,0-.6,0-.7,0-1.8,0-1.5,2.3-1.5,2.3v4.8h-3.3l-12.7-22.2h0c-2.5-4.3-7.6-7-12.7-6.9h-.7c-8.1.3-16.8.5-25.5.5h-9.4c-8.6.2-17.3,0-25.5-.3h.2ZM82.1,127.2c-1.7,0-3-1.2-3-2.7h0c0-1.6,1.4-3,3-3h36c1.7,0,3,1.3,3,3h0c0,1.6-1.4,3-3,3h0l-35.9-.2h0ZM76.8,114.6c-1.9,0-2.6-1.8-3.6-3.6l-4.8-9.1c-1-1.7,1.7-3.6,3.6-3.6h56.4c1.9,0,4.5,1.8,3.6,3.6l-4.8,9.1c-.8,1.7-1.7,3.6-3.6,3.6h-46.7ZM135.3,107.7c.6-2.2,1.1-5.3,2.6-6.2,2.1-2.2,9.7-4.6,15.2-4.6h.7c4,0,12.3,4.2,7.6,8.4-1.4,1.3-3.3,2.1-5.1,2.5h-21ZM100.5,139.8h0M45.2,110.4c-1.8-.4-3.6-1.2-5.1-2.5-4.6-4.2,3.6-8.3,7.6-8.4h.7c5.4,0,13,2.4,15.2,4.6,1.5.9,2,3.9,2.6,6.2h-21Z"/>
  </g>
</svg>